<svg width="256" height="256" viewBox="0 0 256 256" fill="none" xmlns="http://www.w3.org/2000/svg">
  <defs>
    <linearGradient id="grad" x1="0" y1="0" x2="1" y2="1">
      <stop offset="0%" stop-color="#00d9ff"/>
      <stop offset="100%" stop-color="#14b8a6"/>
    </linearGradient>
  </defs>
  <rect width="256" height="256" rx="64" fill="#0b1224"/>
  <circle cx="128" cy="128" r="86" stroke="url(#grad)" stroke-width="12" fill="none"/>
  <circle cx="128" cy="128" r="70" stroke="#0b1224" stroke-width="8" fill="none"/>
  <g stroke="#0b1224" stroke-width="4" stroke-linecap="round">
    <line x1="128" y1="46" x2="128" y2="58"/>
    <line x1="128" y1="198" x2="128" y2="210"/>
    <line x1="46" y1="128" x2="58" y2="128"/>
    <line x1="198" y1="128" x2="210" y2="128"/>
  </g>
  <path d="M128 78L144 128L128 178L112 128L128 78Z" fill="url(#grad)" stroke="#0b1224" stroke-width="6" stroke-linejoin="round"/>
  <circle cx="128" cy="128" r="14" fill="#0b1224" stroke="#00d9ff" stroke-width="6"/>
  <text x="128" y="144" text-anchor="middle" font-family="Inter, Arial, sans-serif" font-size="18" font-weight="700" fill="#00d9ff">CPN</text>
  <g fill="#00d9ff">
    <circle cx="68" cy="78" r="6"/>
    <circle cx="188" cy="92" r="6"/>
    <circle cx="186" cy="178" r="6"/>
    <circle cx="80" cy="182" r="6"/>
  </g>
  <path d="M192 64l32 8-22 22-10-30Z" fill="url(#grad)" stroke="#0b1224" stroke-width="5" stroke-linejoin="round"/>
  <path d="M202 94l-3 30" stroke="#0b1224" stroke-width="5" stroke-linecap="round"/>
  <circle cx="128" cy="128" r="116" stroke="#0f172a" stroke-width="8" opacity="0.4"/>
</svg>
